<svg width="1440" height="841" viewBox="0 0 1440 841" fill="none" xmlns="http://www.w3.org/2000/svg">
<path fill-rule="evenodd" clip-rule="evenodd" d="M0 0H1440V841H0V0ZM5 1C2.79086 1 1 2.79086 1 5V116C1 118.209 2.79086 120 5 120H115C117.209 120 119 118.209 119 116L119 5C119 2.79086 117.209 1 115 1H5ZM5 121C2.79086 121 1 122.791 1 125V236C1 238.209 2.79086 240 5 240H115C117.209 240 119 238.209 119 236L119 125C119 122.791 117.209 121 115 121H5ZM5 241C2.79086 241 1 242.791 1 245V356C1 358.209 2.79086 360 5 360H115C117.209 360 119 358.209 119 356L119 245C119 242.791 117.209 241 115 241H5ZM5 361C2.79086 361 1 362.791 1 365V476C1 478.209 2.79086 480 5 480H106.401C106.954 480 107.502 479.89 108 479.65C112.65 477.406 116.406 473.65 118.65 469C118.89 468.502 119 467.954 119 467.401L119 365C119 362.791 117.209 361 115 361H5ZM5 481C2.79086 481 1 482.791 1 485V596C1 598.209 2.79086 600 5 600H115C117.209 600 119 598.209 119 596L119 493.599C119 493.046 118.89 492.498 118.65 492C116.406 487.35 112.65 483.594 108 481.35C107.502 481.11 106.954 481 106.401 481H5ZM5 601C2.79086 601 1 602.791 1 605V716C1 718.209 2.79086 720 5 720H115C117.209 720 119 718.209 119 716L119 605C119 602.791 117.209 601 115 601H5ZM5 721C2.79086 721 1 722.791 1 725V836C1 838.209 2.79086 840 5 840H115C117.209 840 119 838.209 119 836L119 725C119 722.791 117.209 721 115 721H5ZM1435 840C1437.21 840 1439 838.209 1439 836V725C1439 722.791 1437.21 721 1435 721H1324C1321.79 721 1320 722.791 1320 725V836C1320 838.209 1321.79 840 1324 840H1435ZM1435 720C1437.21 720 1439 718.209 1439 716V605C1439 602.791 1437.21 601 1435 601H1324C1321.79 601 1320 602.791 1320 605V716C1320 718.209 1321.79 720 1324 720H1435ZM1435 600C1437.21 600 1439 598.209 1439 596V485C1439 482.791 1437.21 481 1435 481H1332.6C1332.05 481 1331.5 481.11 1331 481.35C1326.35 483.594 1322.59 487.35 1320.35 492C1320.11 492.498 1320 493.046 1320 493.599V596C1320 598.209 1321.79 600 1324 600H1435ZM1435 480C1437.21 480 1439 478.209 1439 476V365C1439 362.791 1437.21 361 1435 361H1324C1321.79 361 1320 362.791 1320 365V467.401C1320 467.954 1320.11 468.502 1320.35 469C1322.59 473.65 1326.35 477.406 1331 479.65C1331.5 479.89 1332.05 480 1332.6 480H1435ZM1435 360C1437.21 360 1439 358.209 1439 356V245C1439 242.791 1437.21 241 1435 241H1324C1321.79 241 1320 242.791 1320 245V356C1320 358.209 1321.79 360 1324 360H1435ZM1435 240C1437.21 240 1439 238.209 1439 236V125C1439 122.791 1437.21 121 1435 121H1324C1321.79 121 1320 122.791 1320 125V236C1320 238.209 1321.79 240 1324 240H1435ZM1435 120C1437.21 120 1439 118.209 1439 116V5C1439 2.79086 1437.21 1 1435 1H1324C1321.79 1 1320 2.79086 1320 5V116C1320 118.209 1321.79 120 1324 120H1435ZM1319 467.401C1319 467.954 1318.89 468.502 1318.65 469C1316.41 473.65 1312.65 477.406 1308 479.65C1307.5 479.89 1306.95 480 1306.4 480H1204C1201.79 480 1200 478.209 1200 476V365C1200 362.791 1201.79 361 1204 361H1315C1317.21 361 1319 362.791 1319 365V467.401ZM1306.4 481C1306.95 481 1307.5 481.11 1308 481.35C1312.65 483.594 1316.41 487.35 1318.65 492C1318.89 492.498 1319 493.046 1319 493.599V596C1319 598.209 1317.21 600 1315 600H1204C1201.79 600 1200 598.209 1200 596V485C1200 482.791 1201.79 481 1204 481H1306.4ZM120.35 469C120.11 468.502 120 467.954 120 467.401L120 365C120 362.791 121.791 361 124 361H235C237.209 361 239 362.791 239 365V476C239 478.209 237.209 480 235 480H132.599C132.046 480 131.498 479.89 131 479.65C126.35 477.406 122.594 473.65 120.35 469ZM131 481.35C131.498 481.11 132.046 481 132.599 481H235C237.209 481 239 482.791 239 485L239 596C239 598.209 237.209 600 235 600H124C121.791 600 120 598.209 120 596L120 493.599C120 493.046 120.11 492.498 120.35 492C122.594 487.35 126.35 483.594 131 481.35ZM235 840C237.209 840 239 838.209 239 836V725C239 722.791 237.209 721 235 721H124C121.791 721 120 722.791 120 725L120 836C120 838.209 121.791 840 124 840H235ZM355 840C357.209 840 359 838.209 359 836V733.599C359 733.046 358.89 732.498 358.65 732C356.406 727.35 352.65 723.594 348 721.35C347.502 721.11 346.954 721 346.401 721H244C241.791 721 240 722.791 240 725V836C240 838.209 241.791 840 244 840H355ZM244 720C241.791 720 240 718.209 240 716V605C240 602.791 241.791 601 244 601H355C357.209 601 359 602.791 359 605V707.401C359 707.954 358.89 708.502 358.65 709C356.406 713.65 352.65 717.406 348 719.65C347.502 719.89 346.954 720 346.401 720H244ZM360.35 709C360.11 708.502 360 707.954 360 707.401V605C360 602.791 361.791 601 364 601H475C477.209 601 479 602.791 479 605V716C479 718.209 477.209 720 475 720H372.599C372.046 720 371.498 719.89 371 719.65C366.35 717.406 362.594 713.65 360.35 709ZM371 721.35C371.498 721.11 372.046 721 372.599 721H475C477.209 721 479 722.791 479 725V836C479 838.209 477.209 840 475 840H364C361.791 840 360 838.209 360 836V733.599C360 733.046 360.11 732.498 360.35 732C362.594 727.35 366.35 723.594 371 721.35ZM595 840C597.209 840 599 838.209 599 836V725C599 722.791 597.209 721 595 721H484C481.791 721 480 722.791 480 725V836C480 838.209 481.791 840 484 840H595ZM715 840C717.209 840 719 838.209 719 836V725C719 722.791 717.209 721 715 721H604C601.791 721 600 722.791 600 725V836C600 838.209 601.791 840 604 840H715ZM835 840C837.209 840 839 838.209 839 836V725C839 722.791 837.209 721 835 721H724C721.791 721 720 722.791 720 725V836C720 838.209 721.791 840 724 840H835ZM955 840C957.209 840 959 838.209 959 836V725C959 722.791 957.209 721 955 721H844C841.791 721 840 722.791 840 725V836C840 838.209 841.791 840 844 840H955ZM1075 840C1077.21 840 1079 838.209 1079 836V733.599C1079 733.046 1078.89 732.498 1078.65 732C1076.41 727.35 1072.65 723.594 1068 721.35C1067.5 721.11 1066.95 721 1066.4 721H964C961.791 721 960 722.791 960 725V836C960 838.209 961.791 840 964 840H1075ZM1080 733.599C1080 733.046 1080.11 732.498 1080.35 732C1082.59 727.35 1086.35 723.594 1091 721.35C1091.5 721.11 1092.05 721 1092.6 721H1195C1197.21 721 1199 722.791 1199 725V836C1199 838.209 1197.21 840 1195 840H1084C1081.79 840 1080 838.209 1080 836V733.599ZM1092.6 720C1092.05 720 1091.5 719.89 1091 719.65C1086.35 717.406 1082.59 713.65 1080.35 709C1080.11 708.502 1080 707.954 1080 707.401V605C1080 602.791 1081.79 601 1084 601H1195C1197.21 601 1199 602.791 1199 605V716C1199 718.209 1197.21 720 1195 720H1092.6ZM1079 707.401C1079 707.954 1078.89 708.502 1078.65 709C1076.41 713.65 1072.65 717.406 1068 719.65C1067.5 719.89 1066.95 720 1066.4 720H964C961.791 720 960 718.209 960 716V605C960 602.791 961.791 601 964 601H1075C1077.21 601 1079 602.791 1079 605V707.401ZM1315 840C1317.21 840 1319 838.209 1319 836V725C1319 722.791 1317.21 721 1315 721H1204C1201.79 721 1200 722.791 1200 725V836C1200 838.209 1201.79 840 1204 840H1315ZM1319 716C1319 718.209 1317.21 720 1315 720H1204C1201.79 720 1200 718.209 1200 716V605C1200 602.791 1201.79 601 1204 601H1315C1317.21 601 1319 602.791 1319 605V716ZM959 716C959 718.209 957.209 720 955 720H844C841.791 720 840 718.209 840 716V605C840 602.791 841.791 601 844 601H955C957.209 601 959 602.791 959 605V716ZM839 716C839 718.209 837.209 720 835 720H724C721.791 720 720 718.209 720 716V613.599C720 613.046 720.11 612.498 720.35 612C722.594 607.35 726.35 603.594 731 601.35C731.498 601.11 732.046 601 732.599 601H835C837.209 601 839 602.791 839 605V716ZM719 613.599C719 613.046 718.89 612.497 718.65 612C716.406 607.349 712.65 603.594 708 601.35C707.502 601.11 706.954 601 706.401 601H604C601.791 601 600 602.791 600 605V716C600 718.209 601.791 720 604 720H715C717.209 720 719 718.209 719 716V613.599ZM706.401 600C706.954 600 707.502 599.89 708 599.65C712.65 597.406 716.406 593.651 718.65 589C718.89 588.503 719 587.954 719 587.401V485C719 482.791 717.209 481 715 481H604C601.791 481 600 482.791 600 485V596C600 598.209 601.791 600 604 600H706.401ZM720 587.401C720 587.954 720.11 588.502 720.35 589C722.594 593.65 726.35 597.406 731 599.65C731.498 599.89 732.046 600 732.599 600H835C837.209 600 839 598.209 839 596V485C839 482.791 837.209 481 835 481H724C721.791 481 720 482.791 720 485V587.401ZM599 716C599 718.209 597.209 720 595 720H484C481.791 720 480 718.209 480 716V605C480 602.791 481.791 601 484 601H595C597.209 601 599 602.791 599 605V716ZM239 716C239 718.209 237.209 720 235 720H124C121.791 720 120 718.209 120 716L120 605C120 602.791 121.791 601 124 601H235C237.209 601 239 602.791 239 605V716ZM355 600C357.209 600 359 598.209 359 596L359 485C359 482.791 357.209 481 355 481H244C241.791 481 240 482.791 240 485L240 596C240 598.209 241.791 600 244 600H355ZM475 600C477.209 600 479 598.209 479 596L479 485C479 482.791 477.209 481 475 481H364C361.791 481 360 482.791 360 485L360 596C360 598.209 361.791 600 364 600H475ZM595 600C597.209 600 599 598.209 599 596V485C599 482.791 597.209 481 595 481H484C481.791 481 480 482.791 480 485L480 596C480 598.209 481.791 600 484 600H595ZM955 600C957.209 600 959 598.209 959 596V485C959 482.791 957.209 481 955 481H844C841.791 481 840 482.791 840 485V596C840 598.209 841.791 600 844 600H955ZM1075 600C1077.21 600 1079 598.209 1079 596V485C1079 482.791 1077.21 481 1075 481H964C961.791 481 960 482.791 960 485V596C960 598.209 961.791 600 964 600H1075ZM1195 600C1197.21 600 1199 598.209 1199 596V485C1199 482.791 1197.21 481 1195 481H1084C1081.79 481 1080 482.791 1080 485V596C1080 598.209 1081.79 600 1084 600H1195ZM1199 476C1199 478.209 1197.21 480 1195 480H1084C1081.79 480 1080 478.209 1080 476V365C1080 362.791 1081.79 361 1084 361H1195C1197.21 361 1199 362.791 1199 365V476ZM1079 476C1079 478.209 1077.21 480 1075 480H964C961.791 480 960 478.209 960 476V373.599C960 373.046 960.11 372.498 960.35 372C962.594 367.35 966.35 363.594 971 361.35C971.498 361.11 972.046 361 972.599 361H1075C1077.21 361 1079 362.791 1079 365V476ZM959 373.599C959 373.046 958.89 372.497 958.65 372C956.406 367.35 952.65 363.594 948 361.35C947.502 361.11 946.954 361 946.401 361H844C841.791 361 840 362.791 840 365V476C840 478.209 841.791 480 844 480H955C957.209 480 959 478.209 959 476V373.599ZM946.401 360C946.954 360 947.502 359.89 948 359.65C952.65 357.406 956.406 353.65 958.65 349C958.89 348.503 959 347.954 959 347.401V245C959 242.791 957.209 241 955 241H844C841.791 241 840 242.791 840 245V356C840 358.209 841.791 360 844 360H946.401ZM960 347.401C960 347.954 960.11 348.502 960.35 349C962.594 353.65 966.35 357.406 971 359.65C971.498 359.89 972.046 360 972.599 360H1075C1077.21 360 1079 358.209 1079 356V245C1079 242.791 1077.21 241 1075 241H964C961.791 241 960 242.791 960 245V347.401ZM839 476C839 478.209 837.209 480 835 480H724C721.791 480 720 478.209 720 476V365C720 362.791 721.791 361 724 361H835C837.209 361 839 362.791 839 365V476ZM719 476C719 478.209 717.209 480 715 480H604C601.791 480 600 478.209 600 476V365C600 362.791 601.791 361 604 361H715C717.209 361 719 362.791 719 365V476ZM599 476C599 478.209 597.209 480 595 480H484C481.791 480 480 478.209 480 476V373.599C480 373.046 480.11 372.498 480.35 372C482.594 367.35 486.349 363.594 491 361.35C491.498 361.11 492.046 361 492.599 361H595C597.209 361 599 362.791 599 365V476ZM595 360C597.209 360 599 358.209 599 356V245C599 242.791 597.209 241 595 241H484C481.791 241 480 242.791 480 245V347.401C480 347.954 480.11 348.502 480.35 349C482.594 353.65 486.349 357.406 491 359.65C491.498 359.89 492.046 360 492.599 360H595ZM479 245C479 242.791 477.209 241 475 241H364C361.791 241 360 242.791 360 245V356C360 358.209 361.791 360 364 360H466.401C466.954 360 467.502 359.89 468 359.65C472.65 357.406 476.406 353.651 478.65 349C478.89 348.503 479 347.954 479 347.401V245ZM364 361C361.791 361 360 362.791 360 365V476C360 478.209 361.791 480 364 480H475C477.209 480 479 478.209 479 476V373.599C479 373.046 478.89 372.497 478.65 372C476.406 367.349 472.65 363.594 468 361.35C467.502 361.11 466.954 361 466.401 361H364ZM359 476C359 478.209 357.209 480 355 480H244C241.791 480 240 478.209 240 476V365C240 362.791 241.791 361 244 361H355C357.209 361 359 362.791 359 365V476ZM235 360C237.209 360 239 358.209 239 356V245C239 242.791 237.209 241 235 241H124C121.791 241 120 242.791 120 245L120 356C120 358.209 121.791 360 124 360H235ZM355 360C357.209 360 359 358.209 359 356V245C359 242.791 357.209 241 355 241H244C241.791 241 240 242.791 240 245V356C240 358.209 241.791 360 244 360H355ZM715 360C717.209 360 719 358.209 719 356V245C719 242.791 717.209 241 715 241H604C601.791 241 600 242.791 600 245V356C600 358.209 601.791 360 604 360H715ZM835 360C837.209 360 839 358.209 839 356V245C839 242.791 837.209 241 835 241H724C721.791 241 720 242.791 720 245V356C720 358.209 721.791 360 724 360H835ZM1195 360C1197.21 360 1199 358.209 1199 356V245C1199 242.791 1197.21 241 1195 241H1084C1081.79 241 1080 242.791 1080 245V356C1080 358.209 1081.79 360 1084 360H1195ZM1315 360C1317.21 360 1319 358.209 1319 356V245C1319 242.791 1317.21 241 1315 241H1204C1201.79 241 1200 242.791 1200 245V356C1200 358.209 1201.79 360 1204 360H1315ZM1319 236C1319 238.209 1317.21 240 1315 240H1204C1201.79 240 1200 238.209 1200 236V133.599C1200 133.046 1200.11 132.498 1200.35 132C1202.59 127.35 1206.35 123.594 1211 121.35C1211.5 121.11 1212.05 121 1212.6 121H1315C1317.21 121 1319 122.791 1319 125V236ZM1199 133.599C1199 133.046 1198.89 132.498 1198.65 132C1196.41 127.35 1192.65 123.594 1188 121.35C1187.5 121.11 1186.95 121 1186.4 121H1084C1081.79 121 1080 122.791 1080 125V236C1080 238.209 1081.79 240 1084 240H1195C1197.21 240 1199 238.209 1199 236V133.599ZM1186.4 120C1186.95 120 1187.5 119.89 1188 119.65C1192.65 117.406 1196.41 113.65 1198.65 109C1198.89 108.502 1199 107.954 1199 107.401V5C1199 2.79086 1197.21 1 1195 1H1084C1081.79 1 1080 2.79086 1080 5V116C1080 118.209 1081.79 120 1084 120H1186.4ZM1200 107.401C1200 107.954 1200.11 108.502 1200.35 109C1202.59 113.65 1206.35 117.406 1211 119.65C1211.5 119.89 1212.05 120 1212.6 120H1315C1317.21 120 1319 118.209 1319 116V5C1319 2.79086 1317.21 1 1315 1H1204C1201.79 1 1200 2.79086 1200 5V107.401ZM1079 236C1079 238.209 1077.21 240 1075 240H964C961.791 240 960 238.209 960 236V125C960 122.791 961.791 121 964 121H1075C1077.21 121 1079 122.791 1079 125V236ZM959 236C959 238.209 957.209 240 955 240H844C841.791 240 840 238.209 840 236V125C840 122.791 841.791 121 844 121H955C957.209 121 959 122.791 959 125V236ZM839 236C839 238.209 837.209 240 835 240H724C721.791 240 720 238.209 720 236V125C720 122.791 721.791 121 724 121H835C837.209 121 839 122.791 839 125V236ZM719 236C719 238.209 717.209 240 715 240H604C601.791 240 600 238.209 600 236V125C600 122.791 601.791 121 604 121H715C717.209 121 719 122.791 719 125V236ZM599 236C599 238.209 597.209 240 595 240H484C481.791 240 480 238.209 480 236V125C480 122.791 481.791 121 484 121H595C597.209 121 599 122.791 599 125V236ZM479 236C479 238.209 477.209 240 475 240H364C361.791 240 360 238.209 360 236V125C360 122.791 361.791 121 364 121H475C477.209 121 479 122.791 479 125V236ZM359 236C359 238.209 357.209 240 355 240H244C241.791 240 240 238.209 240 236V133.599C240 133.046 240.11 132.498 240.35 132C242.594 127.35 246.35 123.594 251 121.35C251.498 121.11 252.046 121 252.599 121H355C357.209 121 359 122.791 359 125V236ZM355 120C357.209 120 359 118.209 359 116V5C359 2.79086 357.209 1 355 1H244C241.791 1 240 2.79086 240 5V107.401C240 107.954 240.11 108.502 240.35 109C242.594 113.65 246.35 117.406 251 119.65C251.498 119.89 252.046 120 252.599 120H355ZM239 5C239 2.79086 237.209 1 235 1H124C121.791 1 120 2.79086 120 5L120 116C120 118.209 121.791 120 124 120H226.401C226.954 120 227.502 119.89 228 119.65C232.65 117.406 236.406 113.65 238.65 109C238.89 108.502 239 107.954 239 107.401V5ZM124 121C121.791 121 120 122.791 120 125L120 236C120 238.209 121.791 240 124 240H235C237.209 240 239 238.209 239 236V133.599C239 133.046 238.89 132.498 238.65 132C236.406 127.35 232.65 123.594 228 121.35C227.502 121.11 226.954 121 226.401 121H124ZM475 120C477.209 120 479 118.209 479 116V5C479 2.79086 477.209 1 475 1H364C361.791 1 360 2.79086 360 5V116C360 118.209 361.791 120 364 120H475ZM595 120C597.209 120 599 118.209 599 116V5C599 2.79086 597.209 1 595 1H484C481.791 1 480 2.79086 480 5V116C480 118.209 481.791 120 484 120H595ZM715 120C717.209 120 719 118.209 719 116V5C719 2.79086 717.209 1 715 1H604C601.791 1 600 2.79086 600 5V116C600 118.209 601.791 120 604 120H715ZM835 120C837.209 120 839 118.209 839 116V5C839 2.79086 837.209 1 835 1H724C721.791 1 720 2.79086 720 5V116C720 118.209 721.791 120 724 120H835ZM955 120C957.209 120 959 118.209 959 116V5C959 2.79086 957.209 1 955 1H844C841.791 1 840 2.79086 840 5V116C840 118.209 841.791 120 844 120H955ZM1075 120C1077.21 120 1079 118.209 1079 116V5C1079 2.79086 1077.21 1 1075 1H964C961.791 1 960 2.79086 960 5V116C960 118.209 961.791 120 964 120H1075Z" fill="url(#paint0_radial_2099_8)"/>
<defs>
<radialGradient id="paint0_radial_2099_8" cx="0" cy="0" r="1" gradientUnits="userSpaceOnUse" gradientTransform="translate(720) rotate(90) scale(1014.5 1737.07)">
<stop stop-color="white" stop-opacity="0.08"/>
<stop offset="1" stop-color="white" stop-opacity="0"/>
</radialGradient>
</defs>
</svg>
